<?xml version="1.0" encoding="UTF-8" standalone="no"?>
<!-- Created with Inkscape (http://www.inkscape.org/) -->

<svg
   xmlns:dc="http://purl.org/dc/elements/1.1/"
   xmlns:cc="http://creativecommons.org/ns#"
   xmlns:rdf="http://www.w3.org/1999/02/22-rdf-syntax-ns#"
   xmlns:svg="http://www.w3.org/2000/svg"
   xmlns="http://www.w3.org/2000/svg"
   xmlns:sodipodi="http://sodipodi.sourceforge.net/DTD/sodipodi-0.dtd"
   xmlns:inkscape="http://www.inkscape.org/namespaces/inkscape"
   width="210mm"
   height="297mm"
   viewBox="0 0 210 297"
   version="1.1"
   id="svg1531"
   inkscape:version="0.92.3 (2405546, 2018-03-11)"
   sodipodi:docname="lannieres_frontales_x8.svg">
  <defs
     id="defs1525" />
  <sodipodi:namedview
     id="base"
     pagecolor="#ffffff"
     bordercolor="#666666"
     borderopacity="1.0"
     inkscape:pageopacity="0.0"
     inkscape:pageshadow="2"
     inkscape:zoom="0.35"
     inkscape:cx="-91.799457"
     inkscape:cy="560"
     inkscape:document-units="mm"
     inkscape:current-layer="layer1"
     showgrid="false"
     inkscape:window-width="1280"
     inkscape:window-height="961"
     inkscape:window-x="0"
     inkscape:window-y="0"
     inkscape:window-maximized="1" />
  <metadata
     id="metadata1528">
    <rdf:RDF>
      <cc:Work
         rdf:about="">
        <dc:format>image/svg+xml</dc:format>
        <dc:type
           rdf:resource="http://purl.org/dc/dcmitype/StillImage" />
        <dc:title></dc:title>
      </cc:Work>
    </rdf:RDF>
  </metadata>
  <g
     inkscape:label="Calque 1"
     inkscape:groupmode="layer"
     id="layer1">
    <g
       id="g1302"
       transform="rotate(-90,120.17256,175.38298)">
      <g
         transform="translate(5.2200027)"
         id="g1300">
        <path
           id="rect1298"
           style="opacity:0.722;fill:none;fill-opacity:1;fill-rule:evenodd;stroke:#000000;stroke-width:0.5;stroke-linecap:square;stroke-linejoin:round;stroke-miterlimit:4;stroke-dasharray:none;stroke-dashoffset:0;stroke-opacity:1"
           d="M 7.7713935,248.2459 H 19.271163 v -4 H 7.7713935 Z m 267.4616165,0.06 h -11.29985 v -4.06 h 11.29985 z M 7.7713935,223.2459 H 19.271163 v -4 H 7.7713935 Z m 267.4616165,0.06 h -11.29985 v -4.06 h 11.29985 z M 7.7713935,198.2459 H 19.271163 v -4 H 7.7713935 Z m 267.4616165,0.06 h -11.29985 v -4.06 h 11.29985 z M 7.7713935,173.2459 H 19.271163 v -4 H 7.7713935 Z m 267.4616165,0.06 h -11.29985 v -4.06 h 11.29985 z M 7.7713935,148.2459 H 19.271163 v -4 H 7.7713935 Z m 267.4616165,0.06 h -11.29985 v -4.06 h 11.29985 z M 7.7713935,123.2459 H 19.271163 v -4 H 7.7713935 Z m 267.4616165,0.06 h -11.29985 v -4.06 h 11.29985 z M 7.7713935,98.245893 H 19.271163 v -4 H 7.7713935 Z m 267.4616165,0.06 h -11.29985 v -4.06 h 11.29985 z M 7.7713935,73.245893 H 19.271163 v -4 H 7.7713935 Z m 267.4616165,0.06 h -11.29985 v -4.06 h 11.29985 z M 289.7522,238.97591 v 14.6 c 0,2.8808 -3.4788,5.2 -7.8,5.2 H 1.0522035 c -4.3212,0 -7.8,-2.3192 -7.8,-5.2 v -14.6 c 0,-2.8808 3.4788,-5.2 7.8,-5.2 H 281.9522 c 4.3212,0 7.8,2.3192 7.8,5.2 z M 1.0522035,233.77587 c -4.2482,0.79091 -7.8,-2.31919 -7.8,-5.19999 v -14.6 c 0,-2.8808 3.4788,-5.2 7.8,-5.2 H 281.9522 c 4.3212,0 7.8,2.3192 7.8,5.2 v 14.6 c 0,2.8808 -3.51513,5.75916 -7.8,5.19999 m -280.8999965,-25 c -4.26273,0.70843 -7.8,-2.31919 -7.8,-5.19999 v -14.6 c 0,-2.8808 3.4788,-5.2 7.8,-5.2 H 281.9522 c 4.3212,0 7.8,2.3192 7.8,5.2 v 14.6 c 0,2.8808 -3.5195,5.79166 -7.8,5.19999 m 0,-49.99999 c 4.2405,0.83121 7.8,2.3192 7.8,5.2 v 14.6 c 0,2.8808 -3.5281,5.85089 -7.8,5.19999 m -280.8999965,0 c -4.27344,0.6407 -7.8,-2.31919 -7.8,-5.19999 v -14.6 c 0,-2.8808 3.5361,-4.49862 7.8,-5.2 m 288.6999965,-19.8 v 14.6 c 0,2.8808 -3.4788,5.19999 -7.8,5.19999 H 1.0522035 c -4.3212,0 -7.8,-2.31919 -7.8,-5.19999 v -14.6 c 0,-2.8808 3.4788,-5.2 7.8,-5.2 H 281.9522 c 4.3212,0 7.8,2.3192 7.8,5.2 z M 1.0522035,133.77587 c -4.28253,0.57677 -7.8,-2.31919 -7.8,-5.19999 v -14.60001 c 0,-2.8808 3.4788,-5.2 7.8,-5.2 H 281.9522 c 4.3212,0 7.8,2.3192 7.8,5.2 v 14.60001 c 0,2.8808 -3.53674,5.90523 -7.8,5.19999 M 1.0522035,108.7759 c -4.26526,-0.69308 -7.8,-2.3192 -7.8,-5.2 V 88.975903 c 0,-2.8808 3.4788,-5.2 7.8,-5.2 H 281.9522 c 4.3212,0 7.8,2.3192 7.8,5.2 V 103.5759 c 0,2.8808 -3.50237,4.74926 -7.8,5.2 M 1.0522035,83.775883 c -4.29555,0.47008 -7.8,-2.3192 -7.8,-5.2 v -14.59999 c 0,-2.8808 3.4788,-5.2 7.8,-5.2 H 281.9522 c 4.3212,0 7.8,2.3192 7.8,5.2 v 14.59999 c 0,2.8808 -3.54476,5.95213 -7.8,5.2"
           inkscape:connector-curvature="0" />
      </g>
    </g>
  </g>
</svg>
